<svg width="2228" height="956" viewBox="0 0 2228 956" fill="none" xmlns="http://www.w3.org/2000/svg">
<rect x="1273.04" y="318.773" width="450" height="150" transform="rotate(-45 1273.04 318.773)" fill="#82C792"/>
<rect x="1379.11" y="212.707" width="450" height="150" transform="rotate(45 1379.11 212.707)" fill="#82C792"/>
<rect x="1591.24" y="0.574585" width="450" height="150" transform="rotate(45 1591.24 0.574585)" fill="#82C792"/>
<rect x="1682.05" y="263.322" width="100" height="213.497" transform="rotate(45 1682.05 263.322)" fill="#82C792"/>
<rect x="638.203" y="320.326" width="450" height="150" transform="rotate(-45 638.203 320.326)" fill="#82C792"/>
<rect x="744.269" y="214.26" width="450" height="150" transform="rotate(45 744.269 214.26)" fill="#82C792"/>
<rect x="956.401" y="2.1283" width="450" height="150" transform="rotate(45 956.401 2.1283)" fill="#82C792"/>
<rect x="1052.74" y="259.343" width="100" height="254.472" transform="rotate(45 1052.74 259.343)" fill="#82C792"/>
<rect x="106.319" y="212.706" width="450" height="150" transform="rotate(45 106.319 212.706)" fill="#82C792"/>
<rect x="371.484" y="265.74" width="150" height="150" transform="rotate(-45 371.484 265.74)" fill="#82C792"/>
<rect x="255.582" y="487.707" width="388.91" height="150" transform="rotate(-45 255.582 487.707)" fill="#82C792"/>
<rect x="32.7759" y="286.25" width="404.006" height="150" transform="rotate(-45 32.7759 286.25)" fill="#82C792"/>
<rect x="424.517" y="530.905" width="450" height="150" transform="rotate(45 424.517 530.905)" fill="#FBF7F6"/>
<rect x="689.682" y="583.938" width="150" height="150" transform="rotate(-45 689.682 583.938)" fill="#FBF7F6"/>
<rect x="600.037" y="779.648" width="351.777" height="150" transform="rotate(-45 600.037 779.648)" fill="#FBF7F6"/>
<rect x="374.689" y="580.732" width="370.467" height="150" transform="rotate(-45 374.689 580.732)" fill="#FBF7F6"/>
<rect x="1060.91" y="530.905" width="450" height="150" transform="rotate(45 1060.91 530.905)" fill="#FBF7F6"/>
<rect x="1591.24" y="636.971" width="450" height="150" transform="rotate(135 1591.24 636.971)" fill="#FBF7F6"/>
<rect x="1697.31" y="530.904" width="450" height="150" transform="rotate(45 1697.31 530.904)" fill="#FBF7F6"/>
<rect x="1980.15" y="389.483" width="450" height="100" transform="rotate(135 1980.15 389.483)" fill="#FBF7F6"/>
<rect x="2095.92" y="505.255" width="450" height="75" transform="rotate(135 2095.92 505.255)" fill="#FBF7F6"/>
<rect x="2227.64" y="636.97" width="450" height="100" transform="rotate(135 2227.64 636.97)" fill="#FBF7F6"/>
</svg>
